<?xml version="1.0" encoding="UTF-8" standalone="no"?>
<!DOCTYPE svg PUBLIC "-//W3C//DTD SVG 1.1//EN" "http://www.w3.org/Graphics/SVG/1.1/DTD/svg11.dtd">
<svg width="100%" height="100%" viewBox="0 0 609 609" version="1.1" xmlns="http://www.w3.org/2000/svg" xmlns:xlink="http://www.w3.org/1999/xlink" xml:space="preserve" xmlns:serif="http://www.serif.com/" style="fill-rule:evenodd;clip-rule:evenodd;stroke-linejoin:round;stroke-miterlimit:1.41421;">
    <g transform="matrix(1,0,0,1,-1569.92,-556.956)">
        <g id="small-transparent" serif:id="small transparent" transform="matrix(1.21676,0,0,1.21676,1569.92,556.956)">
            <rect x="0" y="0" width="500" height="500" style="fill:none;"/>
            <g transform="matrix(1.275,0,0,1.275,-68.754,-61.6162)">
                <g id="Layer-1" serif:id="Layer 1">
                    <g>
                        <g transform="matrix(2.18705,0,0,2.18705,-284.507,-290.12)">
                            <path d="M170.74,314.491C170.65,314.491 170.606,314.536 170.606,314.625L170.606,316.24C170.606,316.33 170.65,316.375 170.74,316.375L174.632,316.375L174.632,329.18C174.632,329.27 174.677,329.315 174.767,329.315L176.382,329.315C176.472,329.315 176.516,329.27 176.516,329.18L176.516,316.375L180.398,316.375C180.488,316.375 180.533,316.33 180.533,316.24L180.533,314.625C180.533,314.536 180.488,314.491 180.398,314.491L170.74,314.491Z" style="fill:rgb(213,213,213);fill-rule:nonzero;"/>
                            <path d="M188.711,314.491C188.622,314.491 188.577,314.536 188.577,314.625L188.577,329.18C188.577,329.27 188.622,329.315 188.711,329.315L198.338,329.315C198.428,329.315 198.473,329.27 198.473,329.18L198.473,327.565C198.473,327.475 198.428,327.43 198.338,327.43L190.461,327.43L190.461,322.845L196.165,322.845C196.254,322.845 196.299,322.8 196.299,322.71L196.299,321.095C196.299,321.005 196.254,320.961 196.165,320.961L190.461,320.961L190.461,316.375L198.338,316.375C198.428,316.375 198.473,316.33 198.473,316.24L198.473,314.625C198.473,314.536 198.428,314.491 198.338,314.491L188.711,314.491Z" style="fill:rgb(213,213,213);fill-rule:nonzero;"/>
                            <path d="M209.811,321.716L211.684,317.213L213.548,321.716L209.811,321.716ZM210.96,314.46C210.905,314.46 210.863,314.487 210.836,314.542L204.78,329.128C204.759,329.17 204.762,329.211 204.79,329.252C204.818,329.294 204.856,329.315 204.904,329.315L206.56,329.315C206.622,329.315 206.664,329.287 206.684,329.232L209.055,323.517L214.303,323.517L216.674,329.232C216.695,329.287 216.736,329.315 216.798,329.315L218.454,329.315C218.503,329.315 218.541,329.294 218.568,329.252C218.596,329.211 218.599,329.17 218.579,329.128L212.523,314.542C212.502,314.487 212.461,314.46 212.399,314.46L210.96,314.46Z" style="fill:rgb(213,213,213);fill-rule:nonzero;"/>
                            <path d="M237.473,314.491C237.37,314.491 237.28,314.532 237.204,314.615L232.142,320.267L227.09,314.615C227.014,314.532 226.925,314.491 226.821,314.491L226.221,314.491C226.131,314.491 226.086,314.536 226.086,314.625L226.086,329.18C226.086,329.27 226.131,329.315 226.221,329.315L227.753,329.315C227.843,329.315 227.887,329.27 227.887,329.18L227.887,318.207L232.049,322.855C232.111,322.924 232.177,322.924 232.246,322.855L236.417,318.197L236.417,329.18C236.417,329.27 236.462,329.315 236.552,329.315L238.084,329.315C238.174,329.315 238.219,329.27 238.219,329.18L238.219,314.625C238.219,314.536 238.174,314.491 238.084,314.491L237.473,314.491Z" style="fill:rgb(213,213,213);fill-rule:nonzero;"/>
                            <path d="M260.196,327.524L264.937,320.453L264.948,320.433C265.32,319.812 265.507,319.135 265.507,318.404C265.507,317.32 265.124,316.392 264.357,315.619C263.585,314.846 262.653,314.46 261.562,314.46C260.721,314.46 259.955,314.708 259.264,315.205C258.574,315.702 258.095,316.347 257.825,317.141C257.798,317.23 257.829,317.289 257.919,317.317L259.378,317.752C259.461,317.772 259.516,317.745 259.544,317.669C259.696,317.248 259.958,316.906 260.331,316.644C260.703,316.382 261.114,316.251 261.562,316.251C262.156,316.251 262.663,316.461 263.084,316.882C263.505,317.303 263.716,317.81 263.716,318.404C263.716,318.797 263.619,319.159 263.426,319.491L256.977,329.107C256.949,329.149 256.949,329.194 256.977,329.242C256.997,329.29 257.035,329.315 257.091,329.315L265.869,329.315C265.952,329.315 265.993,329.27 265.993,329.18L265.993,327.658C265.993,327.568 265.952,327.524 265.869,327.524L260.196,327.524Z" style="fill:rgb(213,213,213);fill-rule:nonzero;"/>
                            <path d="M276.679,323.197L279.453,319.429L279.453,323.197L276.679,323.197ZM281.171,323.197L281.171,314.584C281.171,314.522 281.144,314.484 281.088,314.47C281.026,314.449 280.978,314.463 280.944,314.511L273.428,324.708C273.394,324.749 273.387,324.794 273.407,324.843C273.435,324.891 273.476,324.915 273.532,324.915L279.453,324.915L279.453,329.19C279.453,329.273 279.494,329.315 279.577,329.315L281.047,329.315C281.13,329.315 281.171,329.273 281.171,329.19L281.171,324.915L282.683,324.915C282.772,324.915 282.817,324.87 282.817,324.78L282.817,323.321C282.817,323.238 282.772,323.197 282.683,323.197L281.171,323.197Z" style="fill:rgb(213,213,213);fill-rule:nonzero;"/>
                            <path d="M299.858,322.886C299.858,325.129 299.475,326.796 298.709,327.886C297.943,328.976 296.746,329.522 295.117,329.522C293.509,329.522 292.319,328.988 291.546,327.922C290.773,326.856 290.373,325.263 290.345,323.145L290.345,320.588C290.345,318.373 290.728,316.727 291.494,315.65C292.26,314.574 293.461,314.035 295.097,314.035C296.718,314.035 297.912,314.555 298.678,315.593C299.444,316.632 299.838,318.235 299.858,320.402L299.858,322.886ZM297.943,320.267C297.943,318.645 297.716,317.463 297.26,316.722C296.805,315.98 296.084,315.609 295.097,315.609C294.117,315.609 293.402,315.978 292.954,316.716C292.505,317.455 292.274,318.59 292.26,320.122L292.26,323.186C292.26,324.815 292.497,326.017 292.969,326.794C293.442,327.57 294.158,327.958 295.117,327.958C296.063,327.958 296.765,327.593 297.224,326.861C297.683,326.13 297.923,324.977 297.943,323.404L297.943,320.267Z" style="fill:rgb(213,213,213);fill-rule:nonzero;"/>
                            <path d="M310.161,321.033L310.161,316.375L313.877,316.375C314.526,316.375 315.078,316.602 315.533,317.058C315.989,317.513 316.217,318.062 316.217,318.704C316.217,319.346 315.989,319.894 315.533,320.35C315.078,320.805 314.526,321.033 313.877,321.033L310.161,321.033ZM308.401,314.48C308.311,314.48 308.266,314.522 308.266,314.605L308.266,329.18C308.266,329.27 308.311,329.315 308.401,329.315L310.026,329.315C310.116,329.315 310.161,329.27 310.161,329.18L310.161,322.938L313.794,322.938C314.947,322.938 315.944,322.541 316.786,321.747C317.635,320.947 318.076,319.974 318.111,318.828C318.145,317.634 317.745,316.609 316.91,315.754C316.082,314.905 315.071,314.48 313.877,314.48L308.401,314.48Z" style="fill:rgb(213,213,213);fill-rule:nonzero;"/>
                        </g>
                        <g transform="matrix(4.63884,0,0,4.63884,366.907,244.901)">
                            <path d="M0,-10.639L0,-28.536L-10.971,-28.536L-10.971,-15.282L0,-10.639ZM0,-38.16L13.165,-38.16L13.165,-10.807L6.813,-8.19L13.165,-5.489L13.165,27.521L0,27.521L0,1.603L4.042,1.603L3.811,1.518L0,-0.086L-10.971,-4.729L-10.971,27.521L-24.136,27.521L-24.136,-10.301L-24.136,-11.23L-24.136,-19.925L-24.136,-20.769L-24.136,-28.536L-24.136,-38.16L0,-38.16Z" style="fill:rgb(58,164,220);fill-rule:nonzero;"/>
                        </g>
                        <g transform="matrix(4.64159,0,0,4.63884,356.886,257.008)">
                            <path d="M0,-16.423L0,-29.511L-7.137,-29.511L-7.137,-19.444L0,-16.423ZM0,26.546L0,-1.707L-7.137,-4.728L-7.155,26.678L-21.98,26.665C-21.935,3.969 -19.001,-1.006 -22.005,-40.538C-22.062,-41.296 -21.919,-42.066 -21.981,-42.85L16.999,-42.815L16.999,-12.416L14.022,-11.054L16.999,-9.648L16.999,26.546L0,26.546Z" style="fill:rgb(213,213,213);fill-rule:nonzero;"/>
                        </g>
                        <g transform="matrix(4.63884,0,0,4.63884,366.866,220.891)">
                            <path d="M0,31.323L0,32.502L13.165,32.502L13.165,10.383L13.165,9.539L13.165,0.844L13.165,-0.085L13.165,-0.508L11.584,-1.179L0,31.323Z" style="fill:rgb(67,67,67);fill-rule:nonzero;"/>
                        </g>
                        <g transform="matrix(4.63884,0,0,4.63884,315.975,296.514)">
                            <path d="M0,-39.857L4.471,-39.857L7.901,-49.481L0,-49.481L-13.165,-49.481L-13.165,9.624L0,-27.313L0,-39.857Z" style="fill:rgb(67,67,67);fill-rule:nonzero;"/>
                        </g>
                        <g transform="matrix(4.63884,0,0,4.63884,398.471,232.638)">
                            <path d="M0,-5.741L6.352,-8.358L6.352,-26.087L6.352,-35.711L-6.813,-35.711L-9.883,-35.711L-13.313,-26.087L-6.813,-26.087L-6.813,-8.19L-17.784,-12.833L-17.784,-13.543L-30.949,23.394L-30.949,29.97L-17.784,29.97L-17.784,-2.28L-6.813,2.363L-3.002,3.967L-2.771,4.052L-6.813,4.052L-6.813,28.791L4.771,-3.712L0,-5.741Z" style="fill:rgb(41,41,41);fill-rule:nonzero;"/>
                        </g>
                        <g transform="matrix(4.63884,0,0,4.63884,176.152,257.553)">
                            <path d="M0,-16.423L0,-29.511L-7.137,-29.511L-7.137,-19.444L0,-16.423ZM0,26.546L0,-1.707L-7.137,-4.728L-7.137,26.546L-24.135,26.546L-24.135,-42.969L16.999,-42.969L16.999,-12.416L14.022,-11.054L16.999,-9.648L16.999,26.546L0,26.546Z" style="fill:rgb(213,213,213);fill-rule:nonzero;"/>
                        </g>
                        <g transform="matrix(4.63884,0,0,4.63884,185.044,221.033)">
                            <path d="M0,31.323L0,32.502L13.165,32.502L13.165,10.383L13.165,9.539L13.165,0.844L13.165,-0.085L13.165,-0.508L11.584,-1.179L0,31.323Z" style="fill:rgb(72,174,118);fill-rule:nonzero;"/>
                        </g>
                        <g transform="matrix(4.63884,0,0,4.63884,134.153,296.654)">
                            <path d="M0,-39.857L4.471,-39.857L7.901,-49.481L0,-49.481L-13.165,-49.481L-13.165,9.624L0,-27.313L0,-39.857Z" style="fill:rgb(72,174,118);fill-rule:nonzero;"/>
                        </g>
                        <g transform="matrix(4.63884,0,0,4.63884,216.649,232.778)">
                            <path d="M0,-5.741L6.352,-8.358L6.352,-26.087L6.352,-35.711L-6.813,-35.711L-9.883,-35.711L-13.313,-26.087L-6.813,-26.087L-6.813,-8.19L-17.784,-12.833L-17.784,-13.543L-30.949,23.394L-30.949,29.97L-17.784,29.97L-17.784,-2.28L-6.813,2.363L-3.002,3.967L-2.771,4.052L-6.813,4.052L-6.813,28.791L4.771,-3.712L0,-5.741Z" style="fill:rgb(42,144,81);fill-rule:nonzero;"/>
                        </g>
                    </g>
                </g>
            </g>
        </g>
    </g>
</svg>
